<svg xmlns="http://www.w3.org/2000/svg" xmlns:xlink="http://www.w3.org/1999/xlink" width="1500" zoomAndPan="magnify" viewBox="0 0 1125 374.999991" height="500" preserveAspectRatio="xMidYMid meet" version="1.0"><defs><clipPath id="id1"><path d="M 52.148438 23.054688 L 130 23.054688 L 130 100 L 52.148438 100 Z M 52.148438 23.054688 " clip-rule="nonzero"/></clipPath><clipPath id="id2"><path d="M 270 23.054688 L 348 23.054688 L 348 100 L 270 100 Z M 270 23.054688 " clip-rule="nonzero"/></clipPath><clipPath id="id3"><path d="M 489 23.054688 L 566 23.054688 L 566 100 L 489 100 Z M 489 23.054688 " clip-rule="nonzero"/></clipPath><clipPath id="id4"><path d="M 707 23.054688 L 784 23.054688 L 784 100 L 707 100 Z M 707 23.054688 " clip-rule="nonzero"/></clipPath><clipPath id="id5"><path d="M 925 23.054688 L 1002 23.054688 L 1002 100 L 925 100 Z M 925 23.054688 " clip-rule="nonzero"/></clipPath><clipPath id="id6"><path d="M 52.148438 241 L 130 241 L 130 318 L 52.148438 318 Z M 52.148438 241 " clip-rule="nonzero"/></clipPath></defs><g clip-path="url(#id1)"><path fill="#ffffff" d="M 91.191406 23.050781 C 70.066406 23.050781 52.886719 40.230469 52.886719 61.359375 C 52.886719 82.484375 70.066406 99.664062 91.191406 99.664062 C 112.304688 99.664062 129.5 82.484375 129.5 61.359375 C 129.5 40.230469 112.304688 23.050781 91.191406 23.050781 " fill-opacity="1" fill-rule="nonzero"/></g><g clip-path="url(#id2)"><path fill="#ffffff" d="M 309.300781 23.050781 C 288.175781 23.050781 270.980469 40.230469 270.980469 61.359375 C 270.980469 82.484375 288.175781 99.664062 309.300781 99.664062 C 330.425781 99.664062 347.605469 82.484375 347.605469 61.359375 C 347.605469 40.230469 330.425781 23.050781 309.300781 23.050781 " fill-opacity="1" fill-rule="nonzero"/></g><g clip-path="url(#id3)"><path fill="#ffffff" d="M 527.394531 23.050781 C 506.269531 23.050781 489.089844 40.230469 489.089844 61.359375 C 489.089844 82.484375 506.269531 99.664062 527.394531 99.664062 C 548.523438 99.664062 565.699219 82.484375 565.699219 61.359375 C 565.699219 40.230469 548.523438 23.050781 527.394531 23.050781 " fill-opacity="1" fill-rule="nonzero"/></g><g clip-path="url(#id4)"><path fill="#ffffff" d="M 745.503906 23.050781 C 724.378906 23.050781 707.183594 40.230469 707.183594 61.359375 C 707.183594 82.484375 724.378906 99.664062 745.503906 99.664062 C 766.628906 99.664062 783.808594 82.484375 783.808594 61.359375 C 783.808594 40.230469 766.628906 23.050781 745.503906 23.050781 " fill-opacity="1" fill-rule="nonzero"/></g><g clip-path="url(#id5)"><path fill="#ffffff" d="M 963.613281 23.050781 C 942.484375 23.050781 925.304688 40.230469 925.304688 61.359375 C 925.304688 82.484375 942.484375 99.664062 963.613281 99.664062 C 984.738281 99.664062 1001.917969 82.484375 1001.917969 61.359375 C 1001.917969 40.230469 984.738281 23.050781 963.613281 23.050781 " fill-opacity="1" fill-rule="nonzero"/></g><g clip-path="url(#id6)"><path fill="#ffffff" d="M 91.191406 241.113281 C 70.066406 241.113281 52.886719 258.308594 52.886719 279.433594 C 52.886719 300.546875 70.066406 317.742188 91.191406 317.742188 C 112.304688 317.742188 129.5 300.546875 129.5 279.433594 C 129.5 258.308594 112.304688 241.113281 91.191406 241.113281 " fill-opacity="1" fill-rule="nonzero"/></g><path fill="#ffffff" d="M 309.300781 241.113281 C 288.175781 241.113281 270.980469 258.308594 270.980469 279.433594 C 270.980469 300.546875 288.175781 317.742188 309.300781 317.742188 C 330.425781 317.742188 347.605469 300.546875 347.605469 279.433594 C 347.605469 258.308594 330.425781 241.113281 309.300781 241.113281 " fill-opacity="1" fill-rule="nonzero"/><path fill="#ffffff" d="M 527.394531 241.113281 C 506.269531 241.113281 489.089844 258.308594 489.089844 279.433594 C 489.089844 300.546875 506.269531 317.742188 527.394531 317.742188 C 548.523438 317.742188 565.699219 300.546875 565.699219 279.433594 C 565.699219 258.308594 548.523438 241.113281 527.394531 241.113281 " fill-opacity="1" fill-rule="nonzero"/><path fill="#ffffff" d="M 745.503906 241.113281 C 724.378906 241.113281 707.183594 258.308594 707.183594 279.433594 C 707.183594 300.546875 724.378906 317.742188 745.503906 317.742188 C 766.628906 317.742188 783.808594 300.546875 783.808594 279.433594 C 783.808594 258.308594 766.628906 241.113281 745.503906 241.113281 " fill-opacity="1" fill-rule="nonzero"/><path fill="#ffffff" d="M 963.613281 241.113281 C 942.484375 241.113281 925.304688 258.308594 925.304688 279.433594 C 925.304688 300.546875 942.484375 317.742188 963.613281 317.742188 C 984.738281 317.742188 1001.917969 300.546875 1001.917969 279.433594 C 1001.917969 258.308594 984.738281 241.113281 963.613281 241.113281 " fill-opacity="1" fill-rule="nonzero"/></svg>